<svg width="104" height="30" viewBox="0 0 104 30" fill="none" xmlns="http://www.w3.org/2000/svg">
<rect width="30" height="30" rx="15" fill="#FF8800"/>
<path fill-rule="evenodd" clip-rule="evenodd" d="M18.9999 7.127C18.9999 6.72836 18.9999 6.52903 19.0788 6.37732C19.1452 6.24947 19.2494 6.14522 19.3773 6.07881C19.529 6 19.7283 6 20.1269 6H20.8729C21.2716 6 21.4709 6 21.6226 6.07881C21.7505 6.14522 21.8547 6.24947 21.9211 6.37732C21.9999 6.52903 21.9999 6.72836 21.9999 7.127V17.873C21.9999 18.2716 21.9999 18.471 21.9211 18.6227C21.8547 18.7505 21.7505 18.8548 21.6226 18.9212C21.4709 19 21.2716 19 20.8729 19H20.1269C19.7283 19 19.529 19 19.3773 18.9212C19.2494 18.8548 19.1452 18.7505 19.0788 18.6227C18.9999 18.471 18.9999 18.2716 18.9999 17.873V7.127ZM15 9.12704C15 8.72839 15 8.52907 15.0788 8.37735C15.1452 8.2495 15.2494 8.14526 15.3773 8.07885C15.529 8.00004 15.7283 8.00004 16.127 8.00004H16.873C17.2716 8.00004 17.4709 8.00004 17.6226 8.07885C17.7505 8.14526 17.8547 8.2495 17.9212 8.37735C18 8.52907 18 8.72839 18 9.12704V17.873C18 18.2717 18 18.471 17.9212 18.6227C17.8547 18.7506 17.7505 18.8548 17.6226 18.9212C17.4709 19 17.2716 19 16.873 19H16.127C15.7283 19 15.529 19 15.3773 18.9212C15.2494 18.8548 15.1452 18.7506 15.0788 18.6227C15 18.471 15 18.2717 15 17.873V9.12704ZM11 12.127C11 11.7284 11 11.529 11.0788 11.3773C11.1452 11.2495 11.2495 11.1452 11.3773 11.0788C11.529 11 11.7283 11 12.127 11H12.873C13.2716 11 13.4709 11 13.6227 11.0788C13.7505 11.1452 13.8548 11.2495 13.9212 11.3773C14 11.529 14 11.7284 14 12.127V17.873C14 18.2716 14 18.471 13.9212 18.6227C13.8548 18.7505 13.7505 18.8548 13.6227 18.9212C13.4709 19 13.2716 19 12.873 19H12.127C11.7283 19 11.529 19 11.3773 18.9212C11.2495 18.8548 11.1452 18.7505 11.0788 18.6227C11 18.471 11 18.2716 11 17.873V12.127ZM7.07881 14.3774C7 14.5291 7 14.7284 7 15.1271V17.8731C7 18.2717 7 18.471 7.07881 18.6227C7.14522 18.7506 7.24947 18.8548 7.37732 18.9212C7.52903 19.0001 7.72836 19.0001 8.127 19.0001H8.873C9.27164 19.0001 9.47097 19.0001 9.62268 18.9212C9.75053 18.8548 9.85478 18.7506 9.92119 18.6227C10 18.471 10 18.2717 10 17.8731V15.1271C10 14.7284 10 14.5291 9.92119 14.3774C9.85478 14.2495 9.75053 14.1453 9.62268 14.0789C9.47097 14.0001 9.27164 14.0001 8.873 14.0001H8.127C7.72836 14.0001 7.52903 14.0001 7.37732 14.0789C7.24947 14.1453 7.14522 14.2495 7.07881 14.3774ZM7.07881 20.3774C7 20.5291 7 20.7284 7 21.1271V21.8731C7 22.2717 7 22.471 7.07881 22.6228C7.14522 22.7506 7.24947 22.8548 7.37732 22.9213C7.52903 23.0001 7.72836 23.0001 8.127 23.0001H8.873C9.27164 23.0001 9.47097 23.0001 9.62268 22.9213C9.75053 22.8548 9.85478 22.7506 9.92119 22.6228C10 22.471 10 22.2717 10 21.8731V21.1271C10 20.7284 10 20.5291 9.92119 20.3774C9.85478 20.2495 9.75053 20.1453 9.62268 20.0789C9.47097 20.0001 9.27164 20.0001 8.873 20.0001H8.127C7.72836 20.0001 7.52903 20.0001 7.37732 20.0789C7.24947 20.1453 7.14522 20.2495 7.07881 20.3774ZM11.0788 20.3774C11 20.5291 11 20.7284 11 21.1271V21.8731C11 22.2717 11 22.471 11.0788 22.6228C11.1452 22.7506 11.2495 22.8548 11.3773 22.9213C11.529 23.0001 11.7283 23.0001 12.127 23.0001H12.873C13.2716 23.0001 13.4709 23.0001 13.6227 22.9213C13.7505 22.8548 13.8548 22.7506 13.9212 22.6228C14 22.471 14 22.2717 14 21.8731V21.1271C14 20.7284 14 20.5291 13.9212 20.3774C13.8548 20.2495 13.7505 20.1453 13.6227 20.0789C13.4709 20.0001 13.2716 20.0001 12.873 20.0001H12.127C11.7283 20.0001 11.529 20.0001 11.3773 20.0789C11.2495 20.1453 11.1452 20.2495 11.0788 20.3774ZM15.0788 20.3774C15 20.5291 15 20.7284 15 21.1271V21.8731C15 22.2717 15 22.471 15.0788 22.6228C15.1452 22.7506 15.2494 22.8548 15.3773 22.9213C15.529 23.0001 15.7283 23.0001 16.127 23.0001H16.873C17.2716 23.0001 17.4709 23.0001 17.6226 22.9213C17.7505 22.8548 17.8547 22.7506 17.9212 22.6228C18 22.471 18 22.2717 18 21.8731V21.1271C18 20.7284 18 20.5291 17.9212 20.3774C17.8547 20.2495 17.7505 20.1453 17.6226 20.0789C17.4709 20.0001 17.2716 20.0001 16.873 20.0001H16.127C15.7283 20.0001 15.529 20.0001 15.3773 20.0789C15.2494 20.1453 15.1452 20.2495 15.0788 20.3774ZM19.0788 20.3774C18.9999 20.5291 18.9999 20.7284 18.9999 21.1271V21.8731C18.9999 22.2717 18.9999 22.471 19.0788 22.6228C19.1452 22.7506 19.2494 22.8548 19.3773 22.9213C19.529 23.0001 19.7283 23.0001 20.1269 23.0001H20.8729C21.2716 23.0001 21.4709 23.0001 21.6226 22.9213C21.7505 22.8548 21.8547 22.7506 21.9211 22.6228C21.9999 22.471 21.9999 22.2717 21.9999 21.8731V21.1271C21.9999 20.7284 21.9999 20.5291 21.9211 20.3774C21.8547 20.2495 21.7505 20.1453 21.6226 20.0789C21.4709 20.0001 21.2716 20.0001 20.8729 20.0001H20.1269C19.7283 20.0001 19.529 20.0001 19.3773 20.0789C19.2494 20.1453 19.1452 20.2495 19.0788 20.3774Z" fill="white"/>
<path fill-rule="evenodd" clip-rule="evenodd" d="M41.0583 26.4249C41.273 26.5166 41.457 26.5625 41.6103 26.5625C42.0243 26.5625 42.3233 26.3254 42.5073 25.8513L49.5451 10.0676C49.8517 9.39463 49.6601 8.91286 48.9701 8.62227C48.3108 8.34697 47.8278 8.5305 47.5211 9.17287L43.8248 17.502L39.6094 9.14993C39.4714 8.85933 39.272 8.66433 39.0114 8.56492C38.7507 8.4655 38.4747 8.47698 38.1834 8.59933C37.8921 8.72169 37.6889 8.91669 37.5739 9.18434C37.4589 9.45199 37.4781 9.73111 37.6314 10.0217L42.7991 19.8133L40.5063 24.9795C40.1997 25.6372 40.3837 26.119 41.0583 26.4249ZM67.1741 20.6551C68.0864 20.9839 69.0792 21.1483 70.1525 21.1483C71.2411 21.1483 72.1496 20.9801 72.8779 20.6436C73.6062 20.3071 74.1582 19.8559 74.5338 19.2901C74.9095 18.7242 75.0973 18.0895 75.0973 17.3859C75.0973 16.7741 74.9517 16.235 74.6603 15.7685C74.369 15.3021 73.8899 14.8929 73.2229 14.5412C72.5559 14.1894 71.6474 13.8988 70.4975 13.6694C69.6695 13.5012 69.0408 13.3291 68.6115 13.1532C68.1822 12.9773 67.8947 12.7785 67.749 12.5567C67.6034 12.335 67.5305 12.0864 67.5305 11.8111C67.5305 11.3676 67.7644 11.0311 68.232 10.8017C68.6997 10.5723 69.2708 10.4576 69.9455 10.4576C70.5281 10.4576 71.0418 10.5264 71.4864 10.6641C71.9311 10.8017 72.3451 11.0541 72.7284 11.4211C72.9584 11.6353 73.242 11.7729 73.5794 11.8341C73.9167 11.8953 74.208 11.8417 74.4533 11.6735C74.6987 11.49 74.829 11.2644 74.8443 10.9967C74.8597 10.7291 74.76 10.4729 74.5453 10.2282C74.0853 9.66228 73.4644 9.21875 72.6824 8.89757C71.9004 8.57639 71.0034 8.4158 69.9915 8.4158C69.2095 8.4158 68.4582 8.54198 67.7375 8.79433C67.0169 9.04669 66.4266 9.42904 65.9666 9.94141C65.5066 10.4538 65.2766 11.0999 65.2766 11.88C65.2766 12.767 65.6254 13.5164 66.3231 14.1282C67.0207 14.74 68.1439 15.1988 69.6925 15.5047C70.8885 15.7188 71.7126 15.9941 72.1649 16.3306C72.6172 16.6671 72.8357 17.0647 72.8204 17.5236C72.8051 17.9824 72.5636 18.3571 72.0959 18.6477C71.6283 18.9383 70.9498 19.0836 70.0605 19.0836C69.3552 19.0836 68.715 18.9574 68.14 18.705C67.565 18.4527 67.1472 18.1812 66.8866 17.8906C66.6719 17.6612 66.4151 17.5274 66.1161 17.4891C65.8171 17.4509 65.5143 17.5541 65.2076 17.7989C64.9469 17.9977 64.7975 18.2539 64.7591 18.5674C64.7208 18.8809 64.8166 19.1601 65.0466 19.4048C65.5526 19.9095 66.2617 20.3262 67.1741 20.6551ZM78.6277 20.7239C78.85 20.9457 79.1299 21.0565 79.4672 21.0565C79.8199 21.0565 80.1035 20.9457 80.3182 20.7239C80.5328 20.5021 80.6402 20.223 80.6402 19.8865V9.67758C80.6402 9.32581 80.5328 9.04287 80.3182 8.82874C80.1035 8.61462 79.8199 8.50756 79.4672 8.50756C79.1299 8.50756 78.85 8.61462 78.6277 8.82874C78.4054 9.04287 78.2942 9.32581 78.2942 9.67758V19.8865C78.2942 20.223 78.4054 20.5021 78.6277 20.7239ZM78.3977 6.01841C78.6967 6.31666 79.0532 6.46577 79.4672 6.46577C79.8812 6.46577 80.2377 6.31666 80.5367 6.01841C80.8357 5.72017 80.9851 5.36459 80.9851 4.95164C80.9851 4.53869 80.8357 4.1831 80.5367 3.88486C80.2377 3.58662 79.8812 3.4375 79.4672 3.4375C79.0532 3.4375 78.6967 3.58662 78.3977 3.88486C78.0987 4.1831 77.9492 4.53869 77.9492 4.95164C77.9492 5.36459 78.0987 5.72017 78.3977 6.01841ZM100.684 20.7468C100.906 20.9686 101.186 21.0795 101.524 21.0795C101.876 21.0795 102.16 20.9686 102.375 20.7468C102.589 20.5251 102.697 20.246 102.697 19.9095V13.3482C102.697 12.2929 102.509 11.3944 102.133 10.6526C101.757 9.91081 101.232 9.34875 100.558 8.96639C99.8829 8.58403 99.1086 8.39286 98.2346 8.39286C97.238 8.39286 96.3525 8.60698 95.5782 9.03522C95.0336 9.33642 94.5743 9.71895 94.2004 10.1828C93.8567 9.66889 93.4229 9.26342 92.8988 8.96639C92.2241 8.58403 91.4498 8.39286 90.5759 8.39286C89.6712 8.39286 88.8663 8.60698 88.1609 9.03522C87.8656 9.21456 87.5971 9.42275 87.3555 9.65977C87.3474 9.32683 87.2403 9.05748 87.034 8.85169C86.8193 8.63757 86.5357 8.53051 86.183 8.53051C85.8457 8.53051 85.5658 8.63757 85.3435 8.85169C85.1212 9.06581 85.01 9.34875 85.01 9.70052V19.9095C85.01 20.246 85.1212 20.5251 85.3435 20.7468C85.5658 20.9686 85.8457 21.0795 86.183 21.0795C86.5357 21.0795 86.8193 20.9686 87.034 20.7468C87.2486 20.5251 87.356 20.246 87.356 19.9095V13.44C87.356 12.5835 87.6166 11.88 88.1379 11.3294C88.6593 10.7788 89.3186 10.5035 90.1159 10.5035C90.8825 10.5035 91.5035 10.7367 91.9788 11.2032C92.4541 11.6697 92.6918 12.3847 92.6918 13.3482V19.9095C92.6918 20.246 92.803 20.5251 93.0253 20.7468C93.2476 20.9686 93.5274 21.0795 93.8648 21.0795C94.2174 21.0795 94.5011 20.9686 94.7157 20.7468C94.9304 20.5251 95.0377 20.246 95.0377 19.9095V13.44C95.0377 12.5835 95.2946 11.88 95.8082 11.3294C96.3219 10.7788 96.9773 10.5035 97.7747 10.5035C98.5413 10.5035 99.1623 10.7367 99.6376 11.2032C100.113 11.6697 100.351 12.3847 100.351 13.3482V19.9095C100.351 20.246 100.462 20.5251 100.684 20.7468ZM52.8966 14.5659C52.9198 13.1374 53.397 12.2253 54.0024 11.6568C54.6417 11.0564 55.5317 10.7388 56.4907 10.7155C57.4546 10.6921 58.4039 10.9699 59.0992 11.4537C59.5318 11.7547 59.8506 12.121 60.0361 12.5403L52.8966 14.5659ZM53.295 16.7989C53.4159 17.069 53.5584 17.3021 53.7143 17.5032C54.1877 18.1137 54.8505 18.5134 55.6203 18.723C57.2303 19.1614 59.0634 18.7097 59.9575 17.9386C60.4301 17.531 61.1444 17.5827 61.553 18.0541C61.9616 18.5254 61.9097 19.2379 61.4372 19.6455C59.9084 20.9641 57.2751 21.5128 55.0245 20.8999C53.8639 20.5839 52.7478 19.945 51.9249 18.8837C51.0986 17.8181 50.6335 16.4111 50.6335 14.6758C50.6335 12.6531 51.3143 11.082 52.4517 10.0138C53.5705 8.96306 55.0298 8.49379 56.4357 8.45967C57.8368 8.42566 59.2682 8.81999 60.3934 9.60294C61.5327 10.3956 62.3943 11.6214 62.4789 13.1926C62.5124 13.8148 62.2409 14.2608 61.5681 14.4517L53.295 16.7989Z" fill="#FF8800"/>
</svg>
