<svg width="30" height="30" viewBox="0 0 30 30" fill="none" xmlns="http://www.w3.org/2000/svg">
<rect width="30" height="30" rx="15" fill="#FF8800"/>
<path fill-rule="evenodd" clip-rule="evenodd" d="M18.9999 7.127C18.9999 6.72836 18.9999 6.52903 19.0788 6.37732C19.1452 6.24947 19.2494 6.14522 19.3773 6.07881C19.529 6 19.7283 6 20.1269 6H20.8729C21.2716 6 21.4709 6 21.6226 6.07881C21.7505 6.14522 21.8547 6.24947 21.9211 6.37732C21.9999 6.52903 21.9999 6.72836 21.9999 7.127V17.873C21.9999 18.2716 21.9999 18.471 21.9211 18.6227C21.8547 18.7505 21.7505 18.8548 21.6226 18.9212C21.4709 19 21.2716 19 20.8729 19H20.1269C19.7283 19 19.529 19 19.3773 18.9212C19.2494 18.8548 19.1452 18.7505 19.0788 18.6227C18.9999 18.471 18.9999 18.2716 18.9999 17.873V7.127ZM15 9.12704C15 8.72839 15 8.52907 15.0788 8.37735C15.1452 8.2495 15.2494 8.14526 15.3773 8.07885C15.529 8.00004 15.7283 8.00004 16.127 8.00004H16.873C17.2716 8.00004 17.4709 8.00004 17.6226 8.07885C17.7505 8.14526 17.8547 8.2495 17.9212 8.37735C18 8.52907 18 8.72839 18 9.12704V17.873C18 18.2717 18 18.471 17.9212 18.6227C17.8547 18.7506 17.7505 18.8548 17.6226 18.9212C17.4709 19 17.2716 19 16.873 19H16.127C15.7283 19 15.529 19 15.3773 18.9212C15.2494 18.8548 15.1452 18.7506 15.0788 18.6227C15 18.471 15 18.2717 15 17.873V9.12704ZM11 12.127C11 11.7284 11 11.529 11.0788 11.3773C11.1452 11.2495 11.2495 11.1452 11.3773 11.0788C11.529 11 11.7283 11 12.127 11H12.873C13.2716 11 13.4709 11 13.6227 11.0788C13.7505 11.1452 13.8548 11.2495 13.9212 11.3773C14 11.529 14 11.7284 14 12.127V17.873C14 18.2716 14 18.471 13.9212 18.6227C13.8548 18.7505 13.7505 18.8548 13.6227 18.9212C13.4709 19 13.2716 19 12.873 19H12.127C11.7283 19 11.529 19 11.3773 18.9212C11.2495 18.8548 11.1452 18.7505 11.0788 18.6227C11 18.471 11 18.2716 11 17.873V12.127ZM7.07881 14.3774C7 14.5291 7 14.7284 7 15.1271V17.8731C7 18.2717 7 18.471 7.07881 18.6227C7.14522 18.7506 7.24947 18.8548 7.37732 18.9212C7.52903 19.0001 7.72836 19.0001 8.127 19.0001H8.873C9.27164 19.0001 9.47097 19.0001 9.62268 18.9212C9.75053 18.8548 9.85478 18.7506 9.92119 18.6227C10 18.471 10 18.2717 10 17.8731V15.1271C10 14.7284 10 14.5291 9.92119 14.3774C9.85478 14.2495 9.75053 14.1453 9.62268 14.0789C9.47097 14.0001 9.27164 14.0001 8.873 14.0001H8.127C7.72836 14.0001 7.52903 14.0001 7.37732 14.0789C7.24947 14.1453 7.14522 14.2495 7.07881 14.3774ZM7.07881 20.3774C7 20.5291 7 20.7284 7 21.1271V21.8731C7 22.2717 7 22.471 7.07881 22.6228C7.14522 22.7506 7.24947 22.8548 7.37732 22.9213C7.52903 23.0001 7.72836 23.0001 8.127 23.0001H8.873C9.27164 23.0001 9.47097 23.0001 9.62268 22.9213C9.75053 22.8548 9.85478 22.7506 9.92119 22.6228C10 22.471 10 22.2717 10 21.8731V21.1271C10 20.7284 10 20.5291 9.92119 20.3774C9.85478 20.2495 9.75053 20.1453 9.62268 20.0789C9.47097 20.0001 9.27164 20.0001 8.873 20.0001H8.127C7.72836 20.0001 7.52903 20.0001 7.37732 20.0789C7.24947 20.1453 7.14522 20.2495 7.07881 20.3774ZM11.0788 20.3774C11 20.5291 11 20.7284 11 21.1271V21.8731C11 22.2717 11 22.471 11.0788 22.6228C11.1452 22.7506 11.2495 22.8548 11.3773 22.9213C11.529 23.0001 11.7283 23.0001 12.127 23.0001H12.873C13.2716 23.0001 13.4709 23.0001 13.6227 22.9213C13.7505 22.8548 13.8548 22.7506 13.9212 22.6228C14 22.471 14 22.2717 14 21.8731V21.1271C14 20.7284 14 20.5291 13.9212 20.3774C13.8548 20.2495 13.7505 20.1453 13.6227 20.0789C13.4709 20.0001 13.2716 20.0001 12.873 20.0001H12.127C11.7283 20.0001 11.529 20.0001 11.3773 20.0789C11.2495 20.1453 11.1452 20.2495 11.0788 20.3774ZM15.0788 20.3774C15 20.5291 15 20.7284 15 21.1271V21.8731C15 22.2717 15 22.471 15.0788 22.6228C15.1452 22.7506 15.2494 22.8548 15.3773 22.9213C15.529 23.0001 15.7283 23.0001 16.127 23.0001H16.873C17.2716 23.0001 17.4709 23.0001 17.6226 22.9213C17.7505 22.8548 17.8547 22.7506 17.9212 22.6228C18 22.471 18 22.2717 18 21.8731V21.1271C18 20.7284 18 20.5291 17.9212 20.3774C17.8547 20.2495 17.7505 20.1453 17.6226 20.0789C17.4709 20.0001 17.2716 20.0001 16.873 20.0001H16.127C15.7283 20.0001 15.529 20.0001 15.3773 20.0789C15.2494 20.1453 15.1452 20.2495 15.0788 20.3774ZM19.0788 20.3774C18.9999 20.5291 18.9999 20.7284 18.9999 21.1271V21.8731C18.9999 22.2717 18.9999 22.471 19.0788 22.6228C19.1452 22.7506 19.2494 22.8548 19.3773 22.9213C19.529 23.0001 19.7283 23.0001 20.1269 23.0001H20.8729C21.2716 23.0001 21.4709 23.0001 21.6226 22.9213C21.7505 22.8548 21.8547 22.7506 21.9211 22.6228C21.9999 22.471 21.9999 22.2717 21.9999 21.8731V21.1271C21.9999 20.7284 21.9999 20.5291 21.9211 20.3774C21.8547 20.2495 21.7505 20.1453 21.6226 20.0789C21.4709 20.0001 21.2716 20.0001 20.8729 20.0001H20.1269C19.7283 20.0001 19.529 20.0001 19.3773 20.0789C19.2494 20.1453 19.1452 20.2495 19.0788 20.3774Z" fill="white"/>
</svg>
